# xmcd
#
# Track frame offsets: 
#        150
#        18692
#        34197
#        46640
#        65343
#        79467
#        96261
#        115014
#        132606
#        150979
#        171638
#
# Disc length: 2520 seconds
#
# Revision: 0
# Processed by: cddbd v1.5.2PL0 Copyright (c) Steve Scherf et al.
# Submitted via: ExactAudioCopyFreeDBPlugin 1.0
#
DISCID=9109d60b
DTITLE=Bareto - Impredecible
DYEAR=2015
DGENRE=blues
TTITLE0=La voz del Sinchi
TTITLE1=La Pantalla
TTITLE2=El Impredecible
TTITLE3=No es para mí
TTITLE4=La Negra y el Fantasma
TTITLE5=Bombo Baile
TTITLE6=Viejita Guarachera
TTITLE7=Mamá Motelo
TTITLE8=El Loco
TTITLE9=La Semilla
TTITLE10=País de las maravillas
EXTD=
EXTT0=
EXTT1=
EXTT2=
EXTT3=
EXTT4=
EXTT5=
EXTT6=
EXTT7=
EXTT8=
EXTT9=
EXTT10=
PLAYORDER=
